<svg width="92" height="92" viewBox="0 0 92 92" fill="none" xmlns="http://www.w3.org/2000/svg">
<g clip-path="url(#clip0_2_59)">
<path d="M92 55.211V36.789L84.8271 34.7039C84.0026 31.8643 82.8683 29.127 81.4414 26.5343L85.04 19.9861L72.0139 6.95984L65.4655 10.5586C62.8727 9.13172 60.1355 7.99735 57.2959 7.17277L55.211 0H46L24.4375 46L46 92H55.211L57.2961 84.8272C60.1357 84.0028 62.8728 82.8683 65.4659 81.4414L72.0141 85.0398L85.0402 72.0137L81.4416 65.4655C82.8685 62.8728 84.0028 60.1355 84.8272 57.2959L92 55.211Z" fill="#092A40"/>
<path d="M36.789 0L34.7039 7.17277C31.8645 7.99717 29.1273 9.13172 26.5345 10.5586L19.9861 6.96002L6.96002 19.9863L10.5586 26.5345C9.1319 29.1273 7.99735 31.8647 7.17277 34.7041L0 36.7892V55.211L7.17277 57.2961C7.99717 60.1355 9.13172 62.8728 10.5586 65.4657L6.96002 72.0139L19.9861 85.04L26.5343 81.4416C29.1273 82.8685 31.8645 84.0028 34.7041 84.8274L36.789 92H46V0H36.789Z" fill="#235C81"/>
<path d="M46 13.6562L27.6512 46L59.4773 75.4005C70.6019 70.2806 78.3438 59.0273 78.3438 46C78.3438 28.1657 63.8344 13.6562 46 13.6562Z" fill="#5A7587"/>
<path d="M46 13.6562C28.1657 13.6562 13.6562 28.1657 13.6562 46C13.6562 59.0275 21.3983 70.2808 32.5229 75.4005H46V13.6562Z" fill="#5A7587"/>
<path d="M71.1562 46C71.1562 32.1288 59.8711 20.8438 46 20.8438L31.7286 46L46 71.1562C59.8711 71.1562 71.1562 59.8712 71.1562 46Z" fill="#FFCE47"/>
<path d="M46 20.8438C32.1288 20.8438 20.8438 32.1288 20.8438 46C20.8438 59.8712 32.1288 71.1562 46 71.1562V20.8438Z" fill="#FFE290"/>
<path d="M52.1608 38.0501L46 27.2688L40.6094 46.136L52.1608 38.0501Z" fill="#092A40"/>
<path d="M46.0001 27.2688L39.8395 38.0501L46.0001 46.136V27.2688Z" fill="#235C81"/>
<path d="M37.9141 58.9389L59.4766 50.8528L52.1608 38.0501H46L37.9141 58.9389Z" fill="#FFF5D9"/>
<path d="M46 38.0501H39.8394L32.5234 50.853L46 58.9389V38.0501Z" fill="white"/>
<path d="M38.2416 64.5984L45.9999 78.3437C50.8069 78.3437 55.3715 77.2881 59.4765 75.3988V50.8528H45.9999L38.2416 64.5984Z" fill="#45A2E0"/>
<path d="M32.5234 50.853V75.3988C36.6284 77.2881 41.193 78.3437 46 78.3437V50.853H32.5234Z" fill="#4EB9FF"/>
</g>
<defs>
<clipPath id="clip0_2_59">
<rect width="92" height="92" fill="white"/>
</clipPath>
</defs>
</svg>
