<svg width="124" height="124" viewBox="0 0 124 124" fill="none" xmlns="http://www.w3.org/2000/svg">
<path d="M22.0391 87.4297V109.227H101.961V87.4297H22.0391Z" fill="#949494"/>
<path d="M62 87.4297H101.961V109.227H62V87.4297Z" fill="#949494"/>
<path d="M102.324 55.7514L96.4389 67.2307H27.5611L21.6758 55.7514C30.3217 43.7631 45.3619 36.5703 62 36.5703C78.6381 36.5703 93.6783 43.7631 102.324 55.7514Z" fill="#C9C9C9"/>
<path d="M102.324 55.7514L96.4389 67.2307H62V36.5703C78.6381 36.5703 93.6783 43.7631 102.324 55.7514Z" fill="#CC1E0D"/>
<path d="M115.548 48.4857L101.961 94.6953H22.0391L8.45197 48.4857L17.6068 44.9986C21.7486 52.918 29.668 57.5678 36.1342 58.3672H39.9127C48.2682 57.0598 54.5158 44.2721 57.0598 32.0652H66.9412C69.4842 44.2721 75.7328 57.0598 84.0873 58.3672H87.8658C94.332 57.5678 102.251 52.918 106.393 44.9986L115.548 48.4857Z" fill="#A5A5A5"/>
<path d="M115.548 48.4857L101.961 94.6953H62V32.0652H66.9402C69.4842 44.2721 75.7318 57.0598 84.0873 58.3672H87.8658C94.332 57.5678 102.251 52.918 106.393 44.9986L115.548 48.4857Z" fill="#949494"/>
<path d="M11.1406 51.1016C5.13135 51.1016 0 46.2124 0 40.2031C0 34.1938 5.13135 29.3047 11.1406 29.3047C17.1499 29.3047 22.0391 34.1938 22.0391 40.2031C22.0391 46.2124 17.1499 51.1016 11.1406 51.1016Z" fill="#949494"/>
<path d="M112.859 51.1016C106.85 51.1016 101.961 46.2124 101.961 40.2031C101.961 34.1938 106.85 29.3047 112.859 29.3047C118.869 29.3047 124 34.1938 124 40.2031C124 46.2124 118.869 51.1016 112.859 51.1016Z" fill="#949494"/>
<path d="M62 14.7734C55.969 14.7734 51.1016 19.6408 51.1016 25.6719C51.1016 31.702 55.969 36.5703 62 36.5703C68.031 36.5703 72.8984 31.702 72.8984 25.6719C72.8984 19.6408 68.031 14.7734 62 14.7734Z" fill="#949494"/>
<path d="M62 56.8412L49.5756 69.2656L62 81.69L74.4244 69.2656L62 56.8412Z" fill="#C9C9C9"/>
<path d="M83.7969 71.3933L88.9339 76.5303L83.7969 81.6674L78.6599 76.5303L83.7969 71.3933Z" fill="#CC1E0D"/>
<path d="M40.2031 71.3933L45.3401 76.5303L40.2031 81.6674L35.0661 76.5303L40.2031 71.3933Z" fill="#C9C9C9"/>
<path d="M62 36.5703V14.7734C68.031 14.7734 72.8984 19.6408 72.8984 25.6719C72.8984 31.702 68.031 36.5703 62 36.5703Z" fill="#9A9A9A"/>
<path d="M74.4244 69.2656L62 81.69V56.8412L74.4244 69.2656Z" fill="#CC1E0D"/>
</svg>
