<svg width="92" height="92" viewBox="0 0 92 92" fill="none" xmlns="http://www.w3.org/2000/svg">
<g clip-path="url(#clip0_2_105)">
<path d="M63.9384 36.9522C63.9384 27.3299 55.465 19.5747 45.1247 20.1491C36.3641 20.58 28.8961 27.1863 28.178 35.516C27.7472 39.6809 29.0397 43.7021 31.4812 46.8617C34.3535 50.5957 36.3641 50.5957 37.0822 55.1914L37.3694 58.351H54.8906L55.0342 57.0584C55.7523 52.1755 57.9065 50.7393 60.7788 46.7181C62.6458 43.8458 63.9384 40.5426 63.9384 36.9522Z" fill="#FDBF5E"/>
<path d="M55.3214 58.2074H36.6514C36.0769 58.2074 35.5024 58.6382 35.5024 59.3563V66.1062C35.5024 66.6807 35.9333 67.2551 36.6514 67.2551H55.3214C55.8959 67.2551 56.4704 66.8243 56.4704 66.1062V59.3563C56.4704 58.6382 55.8959 58.2074 55.3214 58.2074Z" fill="#F16051"/>
<path d="M51.4437 66.9679L40.3853 67.1115V67.8296C40.3853 70.8455 42.9703 73.287 45.9863 73.287C49.0022 73.287 51.4437 70.7019 51.4437 67.686V66.9679Z" fill="#2EA2DB"/>
<path d="M76.5759 68.4043C80.0659 68.4043 82.895 65.5751 82.895 62.0852C82.895 58.5952 80.0659 55.7661 76.5759 55.7661C73.086 55.7661 70.2568 58.5952 70.2568 62.0852C70.2568 65.5751 73.086 68.4043 76.5759 68.4043Z" fill="white"/>
<path d="M14.103 37.096C17.593 37.096 20.4221 34.2668 20.4221 30.7769C20.4221 27.2869 17.593 24.4578 14.103 24.4578C10.6131 24.4578 7.78394 27.2869 7.78394 30.7769C7.78394 34.2668 10.6131 37.096 14.103 37.096Z" fill="white"/>
<path d="M90.9381 55.1914C90.22 52.0319 89.2147 49.0159 88.0658 45.8564C94.0977 30.9203 93.3796 16.2715 84.619 7.51093C79.5925 2.62799 72.6989 0.0429077 64.6564 0.0429077C58.6245 0.0429077 52.3054 1.47907 45.9863 4.06415C39.6672 1.47907 33.3481 0.0429077 27.3163 0.0429077C19.2738 0.0429077 12.3802 2.62799 7.49728 7.51093C0.747334 14.2609 -1.55052 24.7448 1.03457 36.8086C1.75265 39.9681 2.75796 43.1277 4.0505 46.1436C-1.98137 61.0797 -1.26329 75.7285 7.49728 84.4891C12.3802 89.372 19.2738 91.9571 27.3163 91.9571C33.3481 91.9571 39.6672 90.5209 45.9863 87.9358C52.3054 90.5209 58.6245 91.9571 64.6564 91.9571C72.6989 91.9571 79.5925 89.372 84.4754 84.4891C91.2254 77.7391 93.5232 67.2551 90.9381 55.1914ZM64.6564 2.91523C71.9808 2.91523 78.1563 5.21308 82.4648 9.52156C89.9328 16.9896 90.9381 29.1969 86.3424 42.1224C82.752 34.6543 77.5818 27.3299 71.1191 20.8672C64.5128 14.4045 57.1884 9.23432 49.7204 5.64393C54.7469 3.92054 59.7735 2.91523 64.6564 2.91523ZM3.90688 36.2341C1.46541 25.0321 3.47604 15.5534 9.50791 9.52156C13.8164 5.21308 19.9919 2.91523 27.3163 2.91523C32.0556 2.91523 37.0822 3.92054 42.1087 5.64393C34.7843 9.23432 27.4599 14.4045 20.9972 21.0108C19.9919 22.0161 18.9866 23.1651 17.9812 24.1704C16.8323 23.4523 15.5398 23.0215 14.1036 23.0215C9.79514 23.0215 6.34835 26.4682 6.34835 30.7767C6.34835 33.0746 7.35367 35.0852 8.93344 36.5213C7.78451 38.532 6.63559 40.5426 5.77389 42.4096C4.91219 40.399 4.33773 38.2447 3.90688 36.2341ZM9.22067 30.7767C9.22067 28.048 11.3749 25.8938 14.1036 25.8938C16.8323 25.8938 18.9866 28.048 18.9866 30.7767C18.9866 33.5054 16.8323 35.6596 14.1036 35.6596C11.3749 35.6596 9.22067 33.5054 9.22067 30.7767ZM27.3163 89.0848C19.9919 89.0848 13.8164 86.7869 9.50791 82.4784C2.03988 75.0104 1.17818 62.803 5.63028 49.8776C9.22067 57.3456 14.3908 64.5264 20.8536 70.9892C27.3163 77.4519 34.6407 82.7657 42.1087 86.3561C37.2258 88.0794 32.1992 89.0848 27.3163 89.0848ZM45.9863 84.9199C37.9439 81.4731 30.045 76.0157 23.0078 68.9785C16.1142 62.085 10.6568 54.1861 7.21005 46.1436C8.35898 43.4149 9.79514 40.6862 11.3749 37.9575C12.2366 38.2447 13.0983 38.532 14.1036 38.532C18.4121 38.532 21.8589 35.0852 21.8589 30.7767C21.8589 28.9097 21.2844 27.3299 20.1355 26.0374C20.9972 25.0321 22.0025 24.0268 23.0078 22.8778C30.045 15.8407 37.9439 10.3833 45.9863 6.93647C54.0288 10.3833 61.9277 15.8407 68.9649 22.8778C76.0021 29.915 81.3159 37.8139 84.7626 45.8564C83.4701 49.0159 81.7467 52.0319 79.8797 55.1914C78.8744 54.7606 77.7255 54.3297 76.5765 54.3297C72.2681 54.3297 68.8213 57.7765 68.8213 62.085C68.8213 63.952 69.5394 65.6754 70.6883 67.1115C70.1138 67.686 69.5394 68.4041 68.9649 68.9785C61.9277 76.0157 54.0288 81.4731 45.9863 84.9199ZM71.8372 62.085C71.8372 59.3563 73.9915 57.202 76.7202 57.202C79.4489 57.202 81.6031 59.3563 81.6031 62.085C81.6031 64.8137 79.4489 66.9679 76.7202 66.9679C73.9915 66.9679 71.8372 64.8137 71.8372 62.085ZM82.4648 82.4784C78.1563 86.7869 71.9808 89.0848 64.6564 89.0848C59.9171 89.0848 54.8905 88.0794 49.864 86.3561C57.332 82.7657 64.6564 77.5955 71.1191 70.9892C71.8372 70.2711 72.4117 69.553 73.1298 68.8349C74.2787 69.4094 75.4276 69.8402 76.7202 69.8402C81.0286 69.8402 84.4754 66.3934 84.4754 62.085C84.4754 60.0743 83.6137 58.2073 82.4648 56.9148C84.0446 54.4733 85.3371 52.0319 86.486 49.5904C87.2041 51.601 87.7786 53.7552 88.2094 55.7659C90.5073 66.9679 88.4967 76.4466 82.4648 82.4784Z" fill="#193651"/>
<path d="M48.5715 27.9044L39.8109 39.3937H45.6992L43.9758 46.2872L52.4491 35.6596L46.13 35.3724L48.5715 27.9044Z" fill="white"/>
</g>
<defs>
<clipPath id="clip0_2_105">
<rect width="92" height="92" fill="white"/>
</clipPath>
</defs>
</svg>
