<svg width="92" height="92" viewBox="0 0 92 92" fill="none" xmlns="http://www.w3.org/2000/svg">
<path d="M74.75 89.125C66.815 89.125 60.375 82.685 60.375 74.75C60.375 71.9181 61.1944 69.3019 62.6031 67.0737L60.375 61.8125L67.0737 62.6031C69.3019 61.1944 71.9181 60.375 74.75 60.375C82.685 60.375 89.125 66.815 89.125 74.75C89.125 82.685 82.685 89.125 74.75 89.125Z" fill="#E6E9ED"/>
<path d="M83.375 83.375H66.125C66.125 81.6069 67.1169 79.9969 68.6981 79.2206L71.875 77.625V76.5038C70.9981 75.7131 70.4375 74.5919 70.4375 73.3125V70.6819C70.4375 68.3531 72.1913 66.2544 74.52 66.125C77.0069 65.9956 79.0625 67.9794 79.0625 70.4375V73.3125C79.0625 74.5919 78.5019 75.7131 77.625 76.5038V77.625L80.8019 79.2206C82.3831 79.9969 83.375 81.6069 83.375 83.375Z" fill="#FF826E"/>
<path d="M51.75 14.375H86.25C87.8312 14.375 89.125 15.6687 89.125 17.25V37.375C89.125 38.9562 87.8312 40.25 86.25 40.25H67.5625L56.0625 46V40.25H51.75C50.1687 40.25 48.875 38.9562 48.875 37.375V17.25C48.875 15.6687 50.1687 14.375 51.75 14.375Z" fill="#B4DD7F"/>
<path d="M43.125 5.75V23C43.125 24.5812 41.8312 25.875 40.25 25.875H27.3125V30.1875L20.125 25.875H5.75C4.16875 25.875 2.875 24.5812 2.875 23V5.75C2.875 4.16875 4.16875 2.875 5.75 2.875H40.25C41.8312 2.875 43.125 4.16875 43.125 5.75Z" fill="#E6E9ED"/>
<path d="M34.5 17.25C36.0878 17.25 37.375 15.9628 37.375 14.375C37.375 12.7872 36.0878 11.5 34.5 11.5C32.9122 11.5 31.625 12.7872 31.625 14.375C31.625 15.9628 32.9122 17.25 34.5 17.25Z" fill="#FF826E"/>
<path d="M23 17.25C24.5878 17.25 25.875 15.9628 25.875 14.375C25.875 12.7872 24.5878 11.5 23 11.5C21.4122 11.5 20.125 12.7872 20.125 14.375C20.125 15.9628 21.4122 17.25 23 17.25Z" fill="#FF826E"/>
<path d="M11.5 17.25C13.0878 17.25 14.375 15.9628 14.375 14.375C14.375 12.7872 13.0878 11.5 11.5 11.5C9.91218 11.5 8.625 12.7872 8.625 14.375C8.625 15.9628 9.91218 17.25 11.5 17.25Z" fill="#FF826E"/>
<path d="M54.625 58.9375V67.5625L49.5506 68.8563C49.0619 70.6819 48.3431 72.4069 47.4231 74.0025L50.0969 78.5019L44.0019 84.5969L39.5025 81.9231C37.9069 82.8431 36.1819 83.5619 34.3562 84.0506L33.0625 89.125H24.4375L23.1438 84.0506C21.3181 83.5619 19.5931 82.8431 17.9975 81.9231L13.4981 84.5969L7.40313 78.5019L10.0769 74.0025C9.15688 72.4069 8.43813 70.6819 7.94938 68.8563L2.875 67.5625V58.9375L7.94938 57.6437C8.43813 55.8181 9.15688 54.0931 10.0769 52.4975L7.40313 47.9981L13.4981 41.9031L17.9975 44.5769C19.5931 43.6569 21.3181 42.9381 23.1438 42.4494L24.4375 37.375H33.0625L34.3562 42.4494C36.1819 42.9381 37.9069 43.6569 39.5025 44.5769L44.0019 41.9031L50.0969 47.9981L47.4231 52.4975C48.3431 54.0931 49.0619 55.8181 49.5506 57.6437L54.625 58.9375ZM44.5625 63.25C44.5625 54.51 37.49 47.4375 28.75 47.4375C20.01 47.4375 12.9375 54.51 12.9375 63.25C12.9375 71.99 20.01 79.0625 28.75 79.0625C37.49 79.0625 44.5625 71.99 44.5625 63.25Z" fill="#FFC729"/>
<path d="M28.75 47.4375C37.49 47.4375 44.5625 54.51 44.5625 63.25C44.5625 71.99 37.49 79.0625 28.75 79.0625C20.01 79.0625 12.9375 71.99 12.9375 63.25C12.9375 54.51 20.01 47.4375 28.75 47.4375ZM35.9375 63.25C35.9375 59.2825 32.7175 56.0625 28.75 56.0625C24.7825 56.0625 21.5625 59.2825 21.5625 63.25C21.5625 67.2175 24.7825 70.4375 28.75 70.4375C32.7175 70.4375 35.9375 67.2175 35.9375 63.25Z" fill="#FCD770"/>
<path d="M49.082 52.5291L51.9038 47.7768L44.2233 40.0962L39.4709 42.918C38.2231 42.2596 36.9078 41.7163 35.5465 41.2965L34.1794 35.9375H23.3191L21.9535 41.2979C20.5922 41.7177 19.2769 42.2611 18.0291 42.9194L13.2768 40.0976L5.59619 47.7782L8.418 52.5306C7.75962 53.7783 7.21625 55.0936 6.7965 56.4549L1.4375 57.8206V68.6809L6.79794 70.0465C7.21769 71.4078 7.76106 72.7231 8.41944 73.9709L5.59763 78.7233L13.2782 86.4038L18.0306 83.582C19.2783 84.2404 20.5936 84.7837 21.9549 85.2035L23.3206 90.5625H34.1809L35.5465 85.2021C36.9078 84.7823 38.2231 84.2389 39.4709 83.5806L44.2233 86.4024L51.9038 78.7218L49.082 73.9694C49.7404 72.7217 50.2837 71.4064 50.7035 70.0451L56.0625 68.6794V57.8191L50.7021 56.4535C50.2823 55.0922 49.7404 53.7769 49.082 52.5291ZM53.1875 66.4456L48.3805 67.6718L48.162 68.4825C47.7078 70.1744 47.0407 71.7888 46.1797 73.2794L45.7599 74.0083L48.2899 78.2719L43.7704 82.7914L39.5068 80.2614L38.778 80.6811C37.2873 81.5422 35.673 82.2078 33.9811 82.6634L33.1703 82.8819L31.9456 87.6875H25.5559L24.3297 82.8805L23.5189 82.662C21.827 82.2078 20.2127 81.5407 18.722 80.6797L17.9932 80.2599L13.7296 82.7899L9.21006 78.2704L11.7401 74.0068L11.3203 73.278C10.4593 71.7873 9.79369 70.173 9.338 68.4811L9.1195 67.6703L4.3125 66.4456V60.0559L9.1195 58.8297L9.338 58.0189C9.79225 56.327 10.4593 54.7127 11.3203 53.222L11.7401 52.4932L9.21006 48.2296L13.7296 43.7101L17.9932 46.2401L18.722 45.8203C20.2127 44.9593 21.827 44.2937 23.5189 43.838L24.3297 43.6195L25.5544 38.8125H31.9441L33.1703 43.6195L33.9811 43.838C35.673 44.2923 37.2873 44.9593 38.778 45.8203L39.5068 46.2401L43.7704 43.7101L48.2899 48.2296L45.7599 52.4932L46.1797 53.222C47.0407 54.7127 47.7063 56.327 48.162 58.0189L48.3805 58.8297L53.1875 60.0544V66.4456Z" fill="black"/>
<path d="M28.75 46C19.2381 46 11.5 53.7381 11.5 63.25C11.5 72.7619 19.2381 80.5 28.75 80.5C38.2619 80.5 46 72.7619 46 63.25C46 53.7381 38.2619 46 28.75 46ZM28.75 77.625C20.8236 77.625 14.375 71.1764 14.375 63.25C14.375 55.3236 20.8236 48.875 28.75 48.875C36.6764 48.875 43.125 55.3236 43.125 63.25C43.125 71.1764 36.6764 77.625 28.75 77.625Z" fill="black"/>
<path d="M28.75 54.625C23.9933 54.625 20.125 58.4933 20.125 63.25C20.125 68.0067 23.9933 71.875 28.75 71.875C33.5067 71.875 37.375 68.0067 37.375 63.25C37.375 58.4933 33.5067 54.625 28.75 54.625ZM28.75 69C25.5789 69 23 66.4211 23 63.25C23 60.0789 25.5789 57.5 28.75 57.5C31.9211 57.5 34.5 60.0789 34.5 63.25C34.5 66.4211 31.9211 69 28.75 69Z" fill="black"/>
<path d="M86.25 12.9375H51.75C49.3724 12.9375 47.4375 14.8724 47.4375 17.25V37.375C47.4375 39.7526 49.3724 41.6875 51.75 41.6875H54.625V48.3259L67.9018 41.6875H86.25C88.6276 41.6875 90.5625 39.7526 90.5625 37.375V17.25C90.5625 14.8724 88.6276 12.9375 86.25 12.9375ZM87.6875 37.375C87.6875 38.1685 87.0435 38.8125 86.25 38.8125H67.2232L57.5 43.6741V38.8125H51.75C50.9565 38.8125 50.3125 38.1685 50.3125 37.375V17.25C50.3125 16.4565 50.9565 15.8125 51.75 15.8125H86.25C87.0435 15.8125 87.6875 16.4565 87.6875 17.25V37.375Z" fill="black"/>
<path d="M5.75 27.3125H19.7268L28.75 32.7276V27.3125H40.25C42.6276 27.3125 44.5625 25.3776 44.5625 23V5.75C44.5625 3.37237 42.6276 1.4375 40.25 1.4375H5.75C3.37237 1.4375 1.4375 3.37237 1.4375 5.75V23C1.4375 25.3776 3.37237 27.3125 5.75 27.3125ZM4.3125 5.75C4.3125 4.9565 4.9565 4.3125 5.75 4.3125H40.25C41.0435 4.3125 41.6875 4.9565 41.6875 5.75V23C41.6875 23.7935 41.0435 24.4375 40.25 24.4375H25.875V27.6474L20.5232 24.4375H5.75C4.9565 24.4375 4.3125 23.7935 4.3125 23V5.75Z" fill="black"/>
<path d="M81.9375 33.0625H79.0625V21.5625H76.1875V33.0625H73.3125V18.6875H70.4375V33.0625H67.5625V24.4375H64.6875V33.0625H61.8125V27.3125H58.9375V33.0625H56.0625V35.9375H84.8125V18.6875H81.9375V33.0625Z" fill="black"/>
<path d="M11.5 18.6875C13.8776 18.6875 15.8125 16.7526 15.8125 14.375C15.8125 11.9974 13.8776 10.0625 11.5 10.0625C9.12237 10.0625 7.1875 11.9974 7.1875 14.375C7.1875 16.7526 9.12237 18.6875 11.5 18.6875ZM11.5 12.9375C12.2935 12.9375 12.9375 13.5815 12.9375 14.375C12.9375 15.1685 12.2935 15.8125 11.5 15.8125C10.7065 15.8125 10.0625 15.1685 10.0625 14.375C10.0625 13.5815 10.7065 12.9375 11.5 12.9375Z" fill="black"/>
<path d="M23 18.6875C25.3776 18.6875 27.3125 16.7526 27.3125 14.375C27.3125 11.9974 25.3776 10.0625 23 10.0625C20.6224 10.0625 18.6875 11.9974 18.6875 14.375C18.6875 16.7526 20.6224 18.6875 23 18.6875ZM23 12.9375C23.7935 12.9375 24.4375 13.5815 24.4375 14.375C24.4375 15.1685 23.7935 15.8125 23 15.8125C22.2065 15.8125 21.5625 15.1685 21.5625 14.375C21.5625 13.5815 22.2065 12.9375 23 12.9375Z" fill="black"/>
<path d="M34.5 18.6875C36.8776 18.6875 38.8125 16.7526 38.8125 14.375C38.8125 11.9974 36.8776 10.0625 34.5 10.0625C32.1224 10.0625 30.1875 11.9974 30.1875 14.375C30.1875 16.7526 32.1224 18.6875 34.5 18.6875ZM34.5 12.9375C35.2935 12.9375 35.9375 13.5815 35.9375 14.375C35.9375 15.1685 35.2935 15.8125 34.5 15.8125C33.7065 15.8125 33.0625 15.1685 33.0625 14.375C33.0625 13.5815 33.7065 12.9375 34.5 12.9375Z" fill="black"/>
<path d="M74.75 58.9375C71.9383 58.9375 69.1855 59.6908 66.7532 61.1225L58.0851 60.0933L61.0003 66.9645C59.6476 69.345 58.9375 72.0202 58.9375 74.75C58.9375 83.4684 66.0316 90.5625 74.75 90.5625C83.4685 90.5625 90.5625 83.4684 90.5625 74.75C90.5625 66.0316 83.4685 58.9375 74.75 58.9375ZM66.6353 84.8125H82.8633C80.6423 86.6065 77.8205 87.6875 74.7486 87.6875C71.6766 87.6875 68.8577 86.6065 66.6353 84.8125ZM72.8381 75.4386C72.2171 74.8794 71.875 74.1233 71.875 73.3125V70.6819C71.875 69.0417 73.0955 67.6459 74.5933 67.5668C75.3811 67.5208 76.1516 67.8026 76.7295 68.3531C77.3059 68.9022 77.625 69.6411 77.625 70.4375V73.3125C77.625 74.1233 77.2829 74.8794 76.6619 75.4386L76.1875 75.8669V78.5134L80.1608 80.5C80.8005 80.8191 81.2978 81.3266 81.6026 81.9375H67.8989C68.2036 81.3266 68.7025 80.8191 69.3407 80.5L73.3125 78.5134V75.8669L72.8381 75.4386ZM84.7795 82.9078C84.6185 80.7774 83.3808 78.8957 81.4459 77.9283L79.271 76.8416C80.0601 75.8353 80.5 74.5919 80.5 73.3125V70.4375C80.5 68.8678 79.8474 67.3483 78.7089 66.2673C77.5531 65.1719 76.0581 64.6372 74.4424 64.6947C71.3906 64.8543 69 67.4849 69 70.6819V73.3125C69 74.5919 69.4399 75.8353 70.2276 76.8416L68.0527 77.9283C66.1178 78.8957 64.8801 80.7774 64.7191 82.9078C62.905 80.6797 61.8125 77.8406 61.8125 74.75C61.8125 72.312 62.5068 69.9243 63.8221 67.8457L64.2246 67.2089L62.665 63.5317L67.413 64.0967L67.8457 63.8236C69.9243 62.5068 72.312 61.8125 74.75 61.8125C81.8843 61.8125 87.6875 67.6157 87.6875 74.75C87.6875 77.8406 86.595 80.6797 84.7795 82.9078Z" fill="black"/>
</svg>
