<svg width="25" height="25" viewBox="0 0 25 25" fill="none" xmlns="http://www.w3.org/2000/svg">
<g clip-path="url(#clip0_2_170)">
<path d="M24.3621 12.0521C24.3621 11.3837 24.1018 10.7554 23.6292 10.2828L14.7172 1.37079C14.2447 0.898202 13.6163 0.637932 12.9479 0.637932C12.2796 0.637932 11.6512 0.898202 11.1786 1.37079L6.25852 6.29095H3.14009C1.76039 6.29095 0.637939 7.41344 0.637939 8.7931V21.8599C0.637939 23.2396 1.76039 24.3621 3.14009 24.3621H15.7435C17.1232 24.3621 18.2457 23.2396 18.2457 21.8599V19.2049L23.6292 13.8213C24.1018 13.3487 24.3621 12.7204 24.3621 12.0521ZM15.7435 23.4353H3.14009C2.27138 23.4353 1.56466 22.7286 1.56466 21.8599V8.7931C1.56466 7.92439 2.27138 7.21767 3.14009 7.21767H15.7435C16.6123 7.21767 17.319 7.92439 17.319 8.7931V21.8599C17.319 22.7286 16.6123 23.4353 15.7435 23.4353ZM18.2457 9.09313L21.2046 12.0521L18.2457 15.011V9.09313ZM10.4524 6.29095L12.9479 3.79542L15.4435 6.29095H10.4524ZM22.9739 13.166L18.2457 17.8943V16.3216L22.1876 12.3798C22.3685 12.1988 22.3685 11.9054 22.1876 11.7244L13.2756 2.81244C13.0946 2.63155 12.8012 2.63155 12.6203 2.81244L9.14175 6.29095H7.56909L11.8339 2.02612C12.1315 1.72855 12.5271 1.56466 12.9479 1.56466C13.3687 1.56466 13.7644 1.72855 14.0619 2.02612L22.9739 10.9381C23.2715 11.2356 23.4354 11.6312 23.4354 12.0521C23.4354 12.4729 23.2715 12.8685 22.9739 13.166Z" fill="black"/>
<path d="M10.782 16.1249C10.9629 15.9439 10.9629 15.6505 10.782 15.4696C10.601 15.2887 10.3076 15.2887 10.1267 15.4696C9.94372 15.6525 9.7005 15.7532 9.44176 15.7532C9.18301 15.7532 8.9398 15.6525 8.75686 15.4696C8.57592 15.2887 8.28252 15.2887 8.10153 15.4696C7.92058 15.6505 7.92058 15.9439 8.10153 16.1249C8.47101 16.4944 8.95638 16.6791 9.44171 16.6791C9.92717 16.6791 10.4125 16.4944 10.782 16.1249Z" fill="black"/>
<path d="M8.32709 14.2176C8.41328 14.1315 8.46286 14.012 8.46286 13.8901C8.46286 13.7682 8.41328 13.6487 8.32709 13.5625C8.24091 13.4763 8.12136 13.4267 7.9995 13.4267C7.87717 13.4267 7.75808 13.4763 7.6719 13.5625C7.58525 13.6487 7.53613 13.7682 7.53613 13.8901C7.53613 14.012 7.58525 14.1315 7.6719 14.2176C7.75808 14.3038 7.87717 14.3535 7.9995 14.3535C8.12136 14.3535 8.24091 14.3039 8.32709 14.2176Z" fill="black"/>
<path d="M10.8843 14.3535C11.0066 14.3535 11.1257 14.3039 11.2123 14.2176C11.2985 14.1315 11.3476 14.012 11.3476 13.8901C11.3476 13.7682 11.2985 13.6487 11.2123 13.5625C11.1257 13.4763 11.0066 13.4267 10.8843 13.4267C10.7624 13.4267 10.6428 13.4763 10.5567 13.5625C10.4705 13.6487 10.4209 13.7682 10.4209 13.8901C10.4209 14.012 10.4705 14.1315 10.5567 14.2176C10.6428 14.3039 10.7624 14.3535 10.8843 14.3535Z" fill="black"/>
<path d="M13.612 14.5388C13.612 12.2393 11.7412 10.3685 9.44174 10.3685C7.14226 10.3685 5.27148 12.2393 5.27148 14.5388C5.27148 16.8383 7.14226 18.709 9.44174 18.709C11.7412 18.709 13.612 16.8383 13.612 14.5388ZM6.19821 14.5388C6.19821 12.7503 7.65326 11.2953 9.44174 11.2953C11.2302 11.2953 12.6853 12.7503 12.6853 14.5388C12.6853 16.3273 11.2302 17.7823 9.44174 17.7823C7.65326 17.7823 6.19821 16.3273 6.19821 14.5388Z" fill="black"/>
<path d="M15.7436 8.32974H3.14012C2.88421 8.32974 2.67676 8.53719 2.67676 8.7931V20.2845C2.67676 20.5404 2.88421 20.7478 3.14012 20.7478H7.35671C7.61263 20.7478 7.82008 20.5404 7.82008 20.2845C7.82008 20.0286 7.61263 19.8211 7.35671 19.8211H3.60348V9.25647H15.2802V19.8211H11.5269C11.271 19.8211 11.0636 20.0286 11.0636 20.2845C11.0636 20.5404 11.271 20.7478 11.5269 20.7478H15.7436C15.9995 20.7478 16.2069 20.5404 16.2069 20.2845V8.7931C16.2069 8.53719 15.9995 8.32974 15.7436 8.32974Z" fill="black"/>
<path d="M9.44188 19.8211C9.32001 19.8211 9.20047 19.8707 9.11428 19.9569C9.0281 20.0431 8.97852 20.1626 8.97852 20.2845C8.97852 20.4063 9.0281 20.5259 9.11428 20.612C9.20047 20.6982 9.32001 20.7478 9.44188 20.7478C9.56374 20.7478 9.68329 20.6983 9.76948 20.612C9.85566 20.5259 9.90524 20.4063 9.90524 20.2845C9.90524 20.1626 9.85566 20.0431 9.76948 19.9569C9.68329 19.8707 9.56374 19.8211 9.44188 19.8211Z" fill="black"/>
</g>
<defs>
<clipPath id="clip0_2_170">
<rect width="23.7241" height="23.7241" fill="white" transform="translate(0.637939 0.637932)"/>
</clipPath>
</defs>
</svg>
