<svg width="25" height="25" viewBox="0 0 25 25" fill="none" xmlns="http://www.w3.org/2000/svg">
<g clip-path="url(#clip0_2_180)">
<path d="M20.4081 2.35631H0.637939V22.1264H24.3621V2.35631H20.4081ZM3.80116 21.3356H1.42874V18.9632H3.80116V21.3356ZM3.80116 18.1724H1.42874V15.8H3.80116V18.1724ZM3.80116 15.0092H1.42874V12.6368H3.80116V15.0092ZM3.80116 11.846H1.42874V9.47355H3.80116V11.846ZM3.80116 8.68274H1.42874V6.31033H3.80116V8.68274ZM3.80116 5.51953H1.42874V3.14711H3.80116V5.51953ZM20.4081 21.3356H4.59196V3.14711H20.4081V21.3356ZM23.5713 21.3356H21.1989V18.9632H23.5713V21.3356ZM23.5713 18.1724H21.1989V15.8H23.5713V18.1724ZM23.5713 15.0092H21.1989V12.6368H23.5713V15.0092ZM23.5713 11.846H21.1989V9.47355H23.5713V11.846ZM23.5713 8.68274H21.1989V6.31033H23.5713V8.68274ZM23.5713 5.51953H21.1989V3.14711H23.5713V5.51953Z" fill="black"/>
<path d="M15.6125 12.0438C15.5775 11.9826 15.5268 11.932 15.4657 11.897L9.93002 8.73376C9.74092 8.62458 9.49908 8.68938 9.3899 8.87848C9.35486 8.93917 9.33657 9.00807 9.33692 9.07816V15.4046C9.33707 15.5457 9.41239 15.676 9.53462 15.7466C9.65695 15.8172 9.80769 15.8172 9.93002 15.7466L15.4657 12.5834C15.6552 12.475 15.7209 12.2334 15.6125 12.0438ZM10.1277 14.7229V9.75983L14.4708 12.2414L10.1277 14.7229Z" fill="black"/>
</g>
<defs>
<clipPath id="clip0_2_180">
<rect width="23.7241" height="23.7241" fill="white" transform="translate(0.637939 0.379303)"/>
</clipPath>
</defs>
</svg>
